<mxfile host="app.diagrams.net" modified="2021-06-14T12:24:36.780Z" agent="5.0 (Windows NT 10.0; Win64; x64) AppleWebKit/537.36 (KHTML, like Gecko) Chrome/91.0.4472.77 Safari/537.36" etag="OpL0jLN_6ZDp8lrRLG6A" version="14.6.11" type="github">
  <diagram id="Ma-5v9WHLa1jMNKqTdKr" name="Page-1">
    <mxGraphModel dx="1037" dy="953" grid="1" gridSize="10" guides="1" tooltips="1" connect="1" arrows="1" fold="1" page="1" pageScale="1" pageWidth="827" pageHeight="1169" math="0" shadow="0">
      <root>
        <mxCell id="0" />
        <mxCell id="1" parent="0" />
        <mxCell id="5HQ0BBraCvY6fTe0jFlD-1" value="EKKO" style="shape=cylinder3;whiteSpace=wrap;html=1;boundedLbl=1;backgroundOutline=1;size=15;" parent="1" vertex="1">
          <mxGeometry x="105" y="540" width="60" height="80" as="geometry" />
        </mxCell>
        <mxCell id="5HQ0BBraCvY6fTe0jFlD-2" value="EKPO" style="shape=cylinder3;whiteSpace=wrap;html=1;boundedLbl=1;backgroundOutline=1;size=15;" parent="1" vertex="1">
          <mxGeometry x="335" y="540" width="60" height="80" as="geometry" />
        </mxCell>
        <mxCell id="5HQ0BBraCvY6fTe0jFlD-3" value="" style="edgeStyle=entityRelationEdgeStyle;fontSize=12;html=1;endArrow=ERoneToMany;startArrow=ERmandOne;" parent="1" source="5HQ0BBraCvY6fTe0jFlD-1" target="5HQ0BBraCvY6fTe0jFlD-2" edge="1">
          <mxGeometry width="100" height="100" relative="1" as="geometry">
            <mxPoint x="286" y="755" as="sourcePoint" />
            <mxPoint x="386" y="655" as="targetPoint" />
          </mxGeometry>
        </mxCell>
        <mxCell id="5HQ0BBraCvY6fTe0jFlD-4" value="" style="shape=flexArrow;endArrow=classic;html=1;entryX=0.195;entryY=1.027;entryDx=0;entryDy=0;entryPerimeter=0;" parent="1" source="5HQ0BBraCvY6fTe0jFlD-1" target="5HQ0BBraCvY6fTe0jFlD-13" edge="1">
          <mxGeometry width="50" height="50" relative="1" as="geometry">
            <mxPoint x="136" y="610" as="sourcePoint" />
            <mxPoint x="354.33333333333326" y="430" as="targetPoint" />
          </mxGeometry>
        </mxCell>
        <mxCell id="5HQ0BBraCvY6fTe0jFlD-5" value="" style="shape=flexArrow;endArrow=classic;html=1;entryX=0.75;entryY=1;entryDx=0;entryDy=0;" parent="1" source="5HQ0BBraCvY6fTe0jFlD-2" target="5HQ0BBraCvY6fTe0jFlD-13" edge="1">
          <mxGeometry width="50" height="50" relative="1" as="geometry">
            <mxPoint x="586" y="480" as="sourcePoint" />
            <mxPoint x="389.33333333333326" y="430" as="targetPoint" />
          </mxGeometry>
        </mxCell>
        <mxCell id="5HQ0BBraCvY6fTe0jFlD-6" value="" style="endArrow=none;dashed=1;html=1;dashPattern=1 3;strokeWidth=2;" parent="1" edge="1">
          <mxGeometry width="50" height="50" relative="1" as="geometry">
            <mxPoint x="50" y="500" as="sourcePoint" />
            <mxPoint x="780" y="500" as="targetPoint" />
          </mxGeometry>
        </mxCell>
        <mxCell id="5HQ0BBraCvY6fTe0jFlD-7" value="SAP Table" style="text;html=1;resizable=0;autosize=1;align=center;verticalAlign=middle;points=[];fillColor=none;strokeColor=none;rounded=0;" parent="1" vertex="1">
          <mxGeometry x="30" y="510" width="70" height="20" as="geometry" />
        </mxCell>
        <mxCell id="5HQ0BBraCvY6fTe0jFlD-8" value="SAP FACT" style="text;html=1;resizable=0;autosize=1;align=center;verticalAlign=middle;points=[];fillColor=none;strokeColor=none;rounded=0;" parent="1" vertex="1">
          <mxGeometry x="30" y="350" width="70" height="20" as="geometry" />
        </mxCell>
        <mxCell id="5HQ0BBraCvY6fTe0jFlD-9" value="" style="endArrow=none;dashed=1;html=1;dashPattern=1 3;strokeWidth=2;" parent="1" edge="1">
          <mxGeometry width="50" height="50" relative="1" as="geometry">
            <mxPoint x="60" y="350" as="sourcePoint" />
            <mxPoint x="790" y="350" as="targetPoint" />
          </mxGeometry>
        </mxCell>
        <mxCell id="5HQ0BBraCvY6fTe0jFlD-10" value="EKKN" style="shape=cylinder3;whiteSpace=wrap;html=1;boundedLbl=1;backgroundOutline=1;size=15;" parent="1" vertex="1">
          <mxGeometry x="496" y="540" width="60" height="80" as="geometry" />
        </mxCell>
        <mxCell id="5HQ0BBraCvY6fTe0jFlD-12" value="ZIMMKEB_PurchaseAssignment" style="rounded=1;whiteSpace=wrap;html=1;" parent="1" vertex="1">
          <mxGeometry x="526" y="380" width="190" height="60" as="geometry" />
        </mxCell>
        <mxCell id="5HQ0BBraCvY6fTe0jFlD-13" value="ZIMMEKB_PurchasingDoc" style="rounded=1;whiteSpace=wrap;html=1;" parent="1" vertex="1">
          <mxGeometry x="186" y="380" width="160" height="60" as="geometry" />
        </mxCell>
        <mxCell id="5HQ0BBraCvY6fTe0jFlD-14" value="" style="shape=flexArrow;endArrow=classic;html=1;" parent="1" source="5HQ0BBraCvY6fTe0jFlD-10" target="5HQ0BBraCvY6fTe0jFlD-12" edge="1">
          <mxGeometry width="50" height="50" relative="1" as="geometry">
            <mxPoint x="597" y="500" as="sourcePoint" />
            <mxPoint x="647" y="450" as="targetPoint" />
          </mxGeometry>
        </mxCell>
        <mxCell id="5HQ0BBraCvY6fTe0jFlD-15" value="ZCMMPOB_PurchaseOrder" style="rounded=1;whiteSpace=wrap;html=1;" parent="1" vertex="1">
          <mxGeometry x="326" y="230" width="180" height="60" as="geometry" />
        </mxCell>
        <mxCell id="5HQ0BBraCvY6fTe0jFlD-16" value="" style="shape=flexArrow;endArrow=classic;html=1;" parent="1" source="5HQ0BBraCvY6fTe0jFlD-13" target="5HQ0BBraCvY6fTe0jFlD-15" edge="1">
          <mxGeometry width="50" height="50" relative="1" as="geometry">
            <mxPoint x="357" y="371" as="sourcePoint" />
            <mxPoint x="397" y="300" as="targetPoint" />
          </mxGeometry>
        </mxCell>
        <mxCell id="5HQ0BBraCvY6fTe0jFlD-17" value="" style="shape=flexArrow;endArrow=classic;html=1;" parent="1" source="5HQ0BBraCvY6fTe0jFlD-12" target="5HQ0BBraCvY6fTe0jFlD-15" edge="1">
          <mxGeometry width="50" height="50" relative="1" as="geometry">
            <mxPoint x="547" y="320" as="sourcePoint" />
            <mxPoint x="597" y="270" as="targetPoint" />
          </mxGeometry>
        </mxCell>
        <mxCell id="5HQ0BBraCvY6fTe0jFlD-18" value="SAP Composite" style="text;html=1;resizable=0;autosize=1;align=center;verticalAlign=middle;points=[];fillColor=none;strokeColor=none;rounded=0;" parent="1" vertex="1">
          <mxGeometry x="19" y="180" width="100" height="20" as="geometry" />
        </mxCell>
        <mxCell id="5HQ0BBraCvY6fTe0jFlD-19" value="" style="endArrow=none;dashed=1;html=1;dashPattern=1 3;strokeWidth=2;" parent="1" edge="1">
          <mxGeometry width="50" height="50" relative="1" as="geometry">
            <mxPoint x="64" y="180" as="sourcePoint" />
            <mxPoint x="794" y="180" as="targetPoint" />
          </mxGeometry>
        </mxCell>
        <mxCell id="5HQ0BBraCvY6fTe0jFlD-20" value="ZQMMPOB_PurchaseOrder" style="rounded=1;whiteSpace=wrap;html=1;" parent="1" vertex="1">
          <mxGeometry x="326" y="70" width="180" height="60" as="geometry" />
        </mxCell>
        <mxCell id="5HQ0BBraCvY6fTe0jFlD-21" value="" style="shape=flexArrow;endArrow=classic;html=1;exitX=0.5;exitY=0;exitDx=0;exitDy=0;" parent="1" source="5HQ0BBraCvY6fTe0jFlD-15" target="5HQ0BBraCvY6fTe0jFlD-20" edge="1">
          <mxGeometry width="50" height="50" relative="1" as="geometry">
            <mxPoint x="337" y="190" as="sourcePoint" />
            <mxPoint x="387" y="140" as="targetPoint" />
          </mxGeometry>
        </mxCell>
        <mxCell id="5HQ0BBraCvY6fTe0jFlD-23" value="SAP Consumption" style="text;html=1;resizable=0;autosize=1;align=center;verticalAlign=middle;points=[];fillColor=none;strokeColor=none;rounded=0;" parent="1" vertex="1">
          <mxGeometry x="19" y="20" width="110" height="20" as="geometry" />
        </mxCell>
        <mxCell id="5HQ0BBraCvY6fTe0jFlD-24" value="PRPS" style="shape=cylinder3;whiteSpace=wrap;html=1;boundedLbl=1;backgroundOutline=1;size=15;" parent="1" vertex="1">
          <mxGeometry x="716" y="540" width="60" height="80" as="geometry" />
        </mxCell>
        <mxCell id="5HQ0BBraCvY6fTe0jFlD-25" value="" style="shape=flexArrow;endArrow=classic;html=1;" parent="1" source="5HQ0BBraCvY6fTe0jFlD-24" target="5HQ0BBraCvY6fTe0jFlD-12" edge="1">
          <mxGeometry width="50" height="50" relative="1" as="geometry">
            <mxPoint x="646" y="540" as="sourcePoint" />
            <mxPoint x="696" y="490" as="targetPoint" />
          </mxGeometry>
        </mxCell>
        <mxCell id="5HQ0BBraCvY6fTe0jFlD-26" value="" style="endArrow=classic;html=1;" parent="1" source="5HQ0BBraCvY6fTe0jFlD-2" target="5HQ0BBraCvY6fTe0jFlD-10" edge="1">
          <mxGeometry width="50" height="50" relative="1" as="geometry">
            <mxPoint x="416" y="610" as="sourcePoint" />
            <mxPoint x="466" y="560" as="targetPoint" />
          </mxGeometry>
        </mxCell>
        <mxCell id="5HQ0BBraCvY6fTe0jFlD-27" value="" style="endArrow=classic;html=1;" parent="1" source="5HQ0BBraCvY6fTe0jFlD-10" target="5HQ0BBraCvY6fTe0jFlD-24" edge="1">
          <mxGeometry width="50" height="50" relative="1" as="geometry">
            <mxPoint x="556" y="579.5" as="sourcePoint" />
            <mxPoint x="657" y="579.5" as="targetPoint" />
          </mxGeometry>
        </mxCell>
        <mxCell id="5HQ0BBraCvY6fTe0jFlD-32" value="Kontierung im&lt;br&gt;Einkaufsbeleg" style="text;html=1;align=center;verticalAlign=middle;resizable=0;points=[];autosize=1;strokeColor=none;" parent="1" vertex="1">
          <mxGeometry x="481" y="630" width="90" height="30" as="geometry" />
        </mxCell>
        <mxCell id="5HQ0BBraCvY6fTe0jFlD-33" value="PSP-Element" style="text;html=1;align=center;verticalAlign=middle;resizable=0;points=[];autosize=1;strokeColor=none;" parent="1" vertex="1">
          <mxGeometry x="701" y="630" width="90" height="20" as="geometry" />
        </mxCell>
        <mxCell id="5HQ0BBraCvY6fTe0jFlD-35" value="Einkaufsbelegposition" style="text;html=1;align=center;verticalAlign=middle;resizable=0;points=[];autosize=1;strokeColor=none;" parent="1" vertex="1">
          <mxGeometry x="300" y="635" width="130" height="20" as="geometry" />
        </mxCell>
        <mxCell id="5HQ0BBraCvY6fTe0jFlD-36" value="Einkaufsbelegkopf" style="text;html=1;align=center;verticalAlign=middle;resizable=0;points=[];autosize=1;strokeColor=none;" parent="1" vertex="1">
          <mxGeometry x="80" y="635" width="110" height="20" as="geometry" />
        </mxCell>
        <mxCell id="5HQ0BBraCvY6fTe0jFlD-37" value="EBELN" style="text;html=1;align=center;verticalAlign=middle;resizable=0;points=[];autosize=1;strokeColor=none;" parent="1" vertex="1">
          <mxGeometry x="416" y="560" width="50" height="20" as="geometry" />
        </mxCell>
        <mxCell id="5HQ0BBraCvY6fTe0jFlD-38" value="EBELP" style="text;html=1;align=center;verticalAlign=middle;resizable=0;points=[];autosize=1;strokeColor=none;" parent="1" vertex="1">
          <mxGeometry x="416" y="585" width="50" height="20" as="geometry" />
        </mxCell>
        <mxCell id="5HQ0BBraCvY6fTe0jFlD-39" value="PS_PSP_PNR" style="text;html=1;align=center;verticalAlign=middle;resizable=0;points=[];autosize=1;strokeColor=none;" parent="1" vertex="1">
          <mxGeometry x="586" y="580" width="90" height="20" as="geometry" />
        </mxCell>
        <mxCell id="5HQ0BBraCvY6fTe0jFlD-40" value="EBELN" style="text;html=1;align=center;verticalAlign=middle;resizable=0;points=[];autosize=1;strokeColor=none;" parent="1" vertex="1">
          <mxGeometry x="226" y="585" width="50" height="20" as="geometry" />
        </mxCell>
        <mxCell id="5HQ0BBraCvY6fTe0jFlD-41" value="1...n" style="text;html=1;align=center;verticalAlign=middle;resizable=0;points=[];autosize=1;strokeColor=none;" parent="1" vertex="1">
          <mxGeometry x="231" y="560" width="40" height="20" as="geometry" />
        </mxCell>
      </root>
    </mxGraphModel>
  </diagram>
</mxfile>
